<?xml version="1.0" encoding="UTF-8"?>
<svg width="593.06mm" height="141.54mm" version="1.1" viewBox="0 0 593.06 141.54" xml:space="preserve" xmlns="http://www.w3.org/2000/svg"><g transform="translate(209.16 -54.753)"><path d="m-208.98 196.12c-0.0972-0.0972-0.17672-0.61687-0.17672-1.1548s0.11412-1.5799 0.2536-2.3154c0.13948-0.73548 0.37787-2.2698 0.52975-3.4096 0.15188-1.1398 0.44368-3.2629 0.64845-4.7181 0.20476-1.4552 0.44983-3.1816 0.5446-3.8364 0.0948-0.65485 0.33859-2.2622 0.54184-3.5719 0.20324-1.3097 0.55512-3.7505 0.78194-5.424s0.59358-4.2929 0.81503-5.8208c0.22144-1.528 0.51065-3.4925 0.64267-4.3656 0.13203-0.87312 0.43156-2.9567 0.66562-4.6302 0.23407-1.6735 0.58857-4.1738 0.78778-5.5562 0.19921-1.3824 0.55764-3.8828 0.79652-5.5562 0.23888-1.6735 0.60728-4.2333 0.81867-5.6886s0.50277-3.4793 0.64751-4.4979c0.14474-1.0186 0.57006-3.9952 0.94516-6.6146 0.3751-2.6194 0.77908-5.5364 0.89774-6.4823 0.11866-0.94588 0.35862-2.6128 0.53325-3.7042 0.17462-1.0914 0.45358-2.1511 0.61991-2.3549l0.30241-0.37048 22.226 0.16991c12.224 0.0935 82.888 0.24036 157.03 0.32646s134.97 0.20696 135.16 0.26858c0.25381 0.0796 0.32075 0.43704 0.23124 1.2346-0.0693 0.61744-0.32181 2.4918-0.56115 4.1653s-0.54433 3.7571-0.67771 4.6302c-0.13337 0.87312-0.37565 2.54-0.53842 3.7042-0.16275 1.1642-0.4599 3.1882-0.66038 4.4979-0.20044 1.3097-0.5548 3.81-0.78745 5.5562s-0.59269 4.187-0.8001 5.424c-0.20743 1.2369-0.56748 3.7968-0.80013 5.6885-0.23264 1.8918-0.52855 3.9754-0.65759 4.6302-0.12904 0.65484-0.30414 1.7859-0.3891 2.5135-0.085 0.7276-0.26604 2.0968-0.4024 3.0427-0.13634 0.94588-0.43217 3.0295-0.65739 4.6302-0.22521 1.6007-0.58263 4.101-0.79422 5.5562-0.21162 1.4552-0.56862 3.9555-0.7933 5.5562-0.22471 1.6007-0.52718 3.7438-0.67215 4.7625-0.14496 1.0186-0.62701 4.4081-1.0712 7.5321s-0.93324 5.8314-1.0868 6.0163c-0.22513 0.27127-30.668 0.33691-157.5 0.33957-86.471 2e-3 -157.3-0.0762-157.4-0.17342zm44.606-14.442c0.23885-0.1819 1.8276-3.2478 3.5306-6.813 1.703-3.5653 3.2118-6.6311 3.3529-6.813s0.40865-0.33073 0.5946-0.33073c0.18724 0 0.46432 0.56075 0.621 1.2568 0.1556 0.69123 0.83444 3.7571 1.5085 6.813 0.67409 3.0559 1.3472 5.7051 1.4957 5.887 0.19718 0.24151 1.4926 0.32964 4.8017 0.32668 2.4924-2e-3 4.6667-0.0915 4.8317-0.19844 0.16502-0.10691 1.1015-1.7422 2.0811-3.634s2.5868-4.9874 3.5715-6.8792 5.3896-10.464 9.7884-19.05 8.592-16.773 9.3182-18.194c0.72612-1.4211 1.2516-2.7626 1.1678-2.981l-0.1524-0.39716-13.542 0.1412-0.65079 1.1906c-0.35793 0.65485-1.9417 3.8695-3.5194 7.1438-1.5778 3.2742-4.6106 9.557-6.7398 13.962s-3.8711 8.1213-3.8711 8.2589-0.2309 0.3738-0.51311 0.52484c-0.32981 0.1765-0.57003 0.1825-0.67245 0.0168-0.0876-0.1418-0.57839-1.9578-1.0906-4.0356-0.51217-2.0778-0.94124-4.0766-0.9535-4.4419-0.0124-0.36867 2.1598-5.0178 4.883-10.451 2.6979-5.3828 5.1169-10.154 5.3755-10.602 0.25861-0.44843 0.39397-1.014 0.3008-1.2568l-0.16939-0.44143h-9.5038l-0.44727 0.44727c-0.246 0.246-1.1535 1.9129-2.0167 3.7042-1.1255 2.3356-1.701 3.2569-2.0345 3.2569-0.38071 0-0.59922-0.61189-1.2047-3.3734-0.44479-2.0287-0.90702-3.5053-1.1596-3.7042-0.29921-0.23563-1.7177-0.32956-4.9334-0.32667-2.4824 2e-3 -4.6891 0.11512-4.9038 0.25088l-0.39031 0.24683 0.85199 3.5194c0.4686 1.9357 1.5101 6.3174 2.3145 9.7371 0.80436 3.4197 1.5938 6.7537 1.7543 7.4089l0.29188 1.1912-2.1743 4.4307c-1.1959 2.4369-2.3004 4.5087-2.4546 4.6039-0.15417 0.0953-0.41905-0.0165-0.58862-0.24841-0.16957-0.2319-0.51755-1.411-0.77328-2.6201-0.25573-1.2092-0.94092-4.3416-1.5226-6.961-0.58173-2.6194-1.2388-5.5959-1.4603-6.6146-0.22142-1.0186-0.61619-2.8641-0.87727-4.101s-0.86012-3.9754-1.3312-6.0854c-0.47108-2.11-1.0387-4.0448-1.2614-4.2995l-0.40488-0.46303h-6.2561c-4.5131 0-6.3445 0.0885-6.5736 0.3175-0.17462 0.17463-0.3175 0.53488-0.3175 0.80057 0 0.26568 1.0185 4.6174 2.2632 9.6705 1.2448 5.0531 3.9757 16.072 6.0688 24.486 2.0931 8.4143 3.9467 15.469 4.1192 15.677 0.24883 0.29983 1.2256 0.37788 4.7286 0.37788 3.124 0 4.5419-0.0967 4.8492-0.33073zm59.437-0.0352c0.16703-0.20126 0.54471-2.3146 0.83928-4.6964 0.29457-2.3817 0.65152-5.2716 0.79322-6.4219s0.43706-3.353 0.65636-4.8948 0.69271-5.0655 1.052-7.8304c0.35931-2.7649 0.72302-5.5629 0.80824-6.2177 0.0852-0.65485 0.50427-3.8695 0.93123-7.1438 0.42696-3.2742 0.96326-7.3236 1.1918-8.9986 0.22853-1.675 0.37508-3.4014 0.32567-3.8365l-0.08983-0.79094-13.073-0.1415-0.24908 0.46762c-0.137 0.25719-0.37842 1.4796-0.5365 2.7166-0.15808 1.2369-0.58175 4.4516-0.94149 7.1438-0.35974 2.6921-1.0801 8.1095-1.6008 12.039-0.52069 3.9291-1.2409 9.3464-1.6006 12.039-0.35962 2.6921-0.97145 7.4046-1.3596 10.472-0.38818 3.0676-0.62948 5.7763-0.53623 6.0193l0.16954 0.44181h6.4582c5.1751 0 6.5185-0.0727 6.7619-0.36592zm23.786-0.0971c0.12706-0.25466 0.37842-1.6536 0.5586-3.1088 0.18017-1.4552 0.62061-4.8485 0.97875-7.5406 0.35814-2.6921 0.81693-6.0854 1.0195-7.5406 0.20261-1.4552 0.57076-4.3127 0.81811-6.35s0.53117-4.0612 0.6307-4.4975c0.09953-0.43635 0.36336-0.82848 0.58629-0.87141 0.24928-0.048 2.331 2.1345 5.4072 5.6691 2.7511 3.1609 6.0602 6.9885 7.3537 8.5057l2.3517 2.7586-0.43987 3.3459c-0.24193 1.8402-0.62547 4.5542-0.85232 6.031-0.22684 1.4768-0.37281 2.9651-0.32437 3.3073l0.08807 0.62215 6.35 0.0647c3.4925 0.0356 6.4963-0.0294 6.6751-0.14443 0.19107-0.12292 0.54297-1.8949 0.85358-4.2981 0.29067-2.2489 0.71421-5.3986 0.94119-6.9993s0.58817-4.2201 0.80262-5.8208c0.21446-1.6007 0.68453-5.1726 1.0446-7.9375 0.36007-2.7649 0.83073-6.3368 1.0459-7.9375 0.21517-1.6007 0.62697-4.6368 0.91511-6.7469s0.73115-5.4053 0.98447-7.3227c0.38037-2.8791 0.4004-3.5588 0.11505-3.9026l-0.34554-0.41635h-5.9381c-3.3455 0-6.1483 0.11247-6.4195 0.25761-0.26474 0.14168-0.55176 0.5382-0.63784 0.88115-0.08608 0.34295-0.52349 3.4715-0.97202 6.9523-0.44854 3.4808-0.94727 7.3747-1.1083 8.6531-0.16103 1.2784-0.43405 2.5176-0.60671 2.7537l-0.31393 0.42932-0.7668-0.87852c-0.42174-0.48319-1.7788-2.0305-3.0158-3.4385s-3.261-3.7318-4.4979-5.1639c-1.2369-1.4322-3.2015-3.6863-4.3656-5.0092-1.1642-1.3229-2.5736-2.9637-3.1322-3.6461-0.55853-0.68245-1.2693-1.3214-1.5795-1.4198-0.3102-0.0984-2.7585-0.16846-5.4407-0.15556-2.6822 0.0129-4.981 0.12776-5.1085 0.25526-0.1275 0.1275-0.40693 1.4132-0.62096 2.8571-0.21403 1.4439-0.56439 3.8755-0.77859 5.4034s-0.57311 4.3855-0.79759 6.35-0.51897 4.2862-0.65442 5.1594c-0.13545 0.87312-0.37489 2.54-0.53208 3.7042-0.15719 1.1642-0.39508 2.831-0.52864 3.7042-0.13356 0.87313-0.37234 2.6591-0.53062 3.9688s-0.52576 4.2267-0.81662 6.4823c-0.29086 2.2556-0.70898 5.4107-0.92914 7.0115-0.22016 1.6007-0.47076 3.5274-0.55689 4.2816-0.08613 0.75414-0.08497 1.5578 0.0026 1.7859l0.15916 0.41476h12.698l0.23101-0.46302zm65.6 0.13229c0.14334-0.1819 0.33273-0.92604 0.42086-1.6536 0.08813-0.72761 0.52379-4.1209 0.96812-7.5406s1.0555-7.8846 1.3582-9.9219c0.30265-2.0373 0.65717-4.5376 0.78781-5.5562 0.13064-1.0186 0.35716-2.9236 0.50336-4.2333 0.1462-1.3097 0.5122-4.0481 0.81332-6.0854s0.6638-3.8232 0.80595-3.9688c0.15916-0.16294 3.2091-0.27631 7.9392-0.2951 6.175-0.0245 7.7467-0.10234 8.0173-0.39688 0.18529-0.20171 0.66051-2.7312 1.0575-5.6284l0.72094-5.262-0.38148-0.38148-0.38148-0.38149-22.373 0.0217c-12.305 0.012-22.547 0.0886-22.76 0.17034-0.21296 0.0817-0.5107 0.64697-0.66164 1.2561-0.15094 0.60916-0.51117 3.0594-0.8005 5.445-0.28933 2.3856-0.46409 4.499-0.38836 4.6964 0.10279 0.26787 0.78464 0.35859 2.6891 0.3578 1.4033-5.3e-4 4.8375 0.0292 7.6317 0.0662 3.4948 0.0462 5.1785 0.16549 5.3949 0.38214 0.24316 0.24338 0.21227 1.1752-0.13598 4.101-0.24785 2.0824-0.61143 4.8577-0.80796 6.1674-0.19652 1.3097-0.54536 3.8695-0.7752 5.6885-0.22984 1.819-0.60096 4.7956-0.82471 6.6146-0.22375 1.819-0.57612 4.4979-0.78304 5.9531-0.20692 1.4552-0.51117 3.7174-0.67611 5.0271-0.16495 1.3097-0.41074 2.962-0.54622 3.6717-0.17324 0.90763-0.1569 1.3982 0.0551 1.6536 0.24001 0.2892 1.5817 0.36318 6.5866 0.36318 4.7128 0 6.3504-0.0827 6.5458-0.33073zm59.324-0.26458c0.13295-0.32742 0.43019-2.0836 0.66048-3.9026 0.23029-1.819 0.55311-4.2486 0.71739-5.3992l0.29869-2.0919-0.48622-0.35553c-0.3897-0.28497-2.8077-0.35554-12.181-0.35554h-11.695l-0.14917-0.38873c-0.08205-0.2138 0.0222-1.4342 0.23166-2.712 0.20946-1.2778 0.3829-2.6874 0.38544-3.1326 0.0026-0.44513 0.16716-1.0316 0.36582-1.3033l0.3612-0.49398 16.72 0.0618 0.51955-0.44742c0.43024-0.37047 0.61928-1.2538 1.0994-5.1366 0.31893-2.579 0.51012-4.871 0.42482-5.0932l-0.15505-0.40409h-8.4426c-6.7981 0-8.5008-0.0701-8.7414-0.36006-0.22329-0.26905-0.19158-1.1552 0.12544-3.5057 0.24063-1.7841 0.58363-3.312 0.79244-3.5299l0.36816-0.38426 11.522-0.0355c6.9113-0.0213 11.623-0.13654 11.775-0.28802 0.13891-0.13889 0.55126-2.3665 0.91638-4.9503s0.66387-5.102 0.66387-5.596c0-0.49399-0.11322-0.96813-0.25162-1.0537-0.13838-0.0855-8.4983-0.16003-18.578-0.16556l-18.326-0.0101-0.31618 0.43241c-0.1739 0.23782-0.39867 1.1685-0.49949 2.0682-0.10082 0.89967-0.47335 3.7789-0.82784 6.3983-0.3545 2.6194-0.75476 5.715-0.88948 6.8792-0.13472 1.1642-0.42251 3.4859-0.63955 5.1594s-0.87743 6.7336-1.4675 11.245c-0.59012 4.5112-1.2498 9.5118-1.466 11.112-0.2162 1.6007-0.5223 3.96-0.68022 5.2429-0.15792 1.2828-0.22159 2.5032-0.14149 2.712l0.14564 0.37952h37.599l0.24172-0.59531zm20.644 0c0.13652-0.32742 0.49146-2.4408 0.7888-4.6964 0.29731-2.2556 0.76983-5.7952 1.05-7.8658 0.28017-2.0706 0.58454-3.8863 0.67635-4.0349 0.09181-0.14855 0.7471-0.2701 1.4562-0.2701h1.2893l0.49594 0.72761c0.27273 0.40018 1.4023 2.3349 2.5101 4.2995 1.1078 1.9645 3.1302 5.5364 4.4943 7.9375l2.4801 4.3656 7.47 0.0703c6.1542 0.0579 7.4946 6e-3 7.6101-0.29478 0.07705-0.20078-1.7299-3.6257-4.0155-7.6109-2.2856-3.9852-4.4352-7.69-4.777-8.2328-0.34182-0.54281-0.62145-1.216-0.62145-1.4961 0-0.34267 0.48718-0.78411 1.4899-1.35 0.81941-0.46246 2.0647-1.3785 2.7672-2.0357 0.70257-0.65715 1.6444-1.7667 2.0929-2.4657 0.44852-0.69897 1.053-1.9466 1.3433-2.7725 0.29027-0.8259 0.70115-2.8319 0.91305-4.4578 0.2119-1.6259 0.50903-3.8492 0.66029-4.9406 0.15126-1.0914 0.29104-3.5322 0.31062-5.424l0.03561-3.4396-0.5433-1.223c-0.29879-0.67266-1.0025-1.7313-1.5638-2.3526s-1.4379-1.3918-1.948-1.7122c-0.51014-0.32045-1.7014-0.83608-2.6473-1.1458l-1.7198-0.56318-10.716-0.0212c-5.8936-0.0116-12.296-0.0149-14.227-7e-3l-3.5114 0.0139-0.25805 0.59531c-0.14192 0.32742-0.79401 4.7625-1.449 9.8557-0.65506 5.0932-1.3705 10.63-1.5898 12.303-0.21934 1.6735-0.51416 3.8761-0.65519 4.8948-0.141 1.0186-0.4399 3.3404-0.66424 5.1594-0.22431 1.819-0.58976 4.6765-0.81211 6.35-0.22238 1.6735-0.50861 3.7571-0.63611 4.6302-0.1275 0.87313-0.37804 2.7952-0.55671 4.2712-0.1787 1.476-0.25146 2.875-0.16171 3.1088l0.16314 0.4252h12.728l0.24818-0.59531zm4.3018-28.3c-0.20389-0.24565-0.2222-0.91691-0.06003-2.1993 0.12838-1.0152 0.4118-3.2026 0.62987-4.8609 0.21804-1.6583 0.52803-3.1466 0.68882-3.3073 0.19405-0.19391 1.8049-0.27716 4.7904-0.24757 3.6629 0.0363 4.6205 0.12483 5.1577 0.47685 0.36288 0.23776 0.77732 0.74151 0.92101 1.1194 0.18124 0.47669 0.14137 1.6074-0.1302 3.6914-0.21529 1.6523-0.54652 3.3205-0.73607 3.707-0.18955 0.38649-0.68038 0.95154-1.0907 1.2557l-0.74605 0.55296-4.5657 0.0827c-3.5661 0.0646-4.6299 5e-3 -4.8591-0.27089zm178.27 29.763c-0.50933-0.0533-1.5214-0.28745-2.249-0.52023-0.72761-0.23278-1.8089-0.76907-2.4028-1.1917-0.59396-0.42268-1.4982-1.3283-2.0094-2.0124-0.51123-0.68416-1.1411-1.7797-1.3996-2.4346-0.33557-0.84974-0.46892-1.9103-0.4658-3.7042 3e-3 -1.3824 0.21037-3.6446 0.46215-5.0271 0.2518-1.3824 0.57653-2.6624 0.72165-2.8443 0.19756-0.24766 1.8007-0.32971 6.383-0.32667 3.3656 2e-3 6.2777 0.10451 6.4713 0.2273 0.27178 0.17229 0.3098 0.70887 0.16658 2.3508l-0.1856 2.1276 0.54364 0.29095c0.33276 0.17808 2.2506 0.29094 4.944 0.29094 2.4202 0 4.6222-0.11869 4.8933-0.26376 0.31599-0.16911 0.58836-0.76254 0.75899-1.6536 0.14636-0.76443 0.46124-2.9377 0.69971-4.8295 0.23844-1.8918 0.60521-4.6897 0.81502-6.2177 0.20979-1.528 0.56042-4.0878 0.77915-5.6885 0.2187-1.6007 0.51117-3.8034 0.6499-4.8948 0.13872-1.0914 0.49868-3.8894 0.79988-6.2177 0.30121-2.3283 0.66183-4.8783 0.8014-5.6665 0.13954-0.78825 0.25374-1.762 0.25374-2.1639s0.19293-0.92365 0.42873-1.1594l0.4287-0.42872 6.4377 0.0791c4.5078 0.0554 6.5314 0.1729 6.7502 0.39202 0.23995 0.24032 0.24034 0.82349 3e-3 2.5135-0.17087 1.2103-0.4351 3.1531-0.58721 4.3173-0.15209 1.1642-0.43691 3.2478-0.63291 4.6302-0.19603 1.3824-0.54081 3.8828-0.76621 5.5562-0.22543 1.6735-0.59164 4.4119-0.81381 6.0854-0.22219 1.6735-0.57464 4.2929-0.78324 5.8208s-0.57325 4.2664-0.81032 6.0854c-0.23709 1.819-0.557 4.0812-0.7109 5.0271-0.15391 0.94588-0.45138 2.2366-0.66104 2.8683-0.20965 0.63167-0.77451 1.7628-1.2553 2.5135-0.48075 0.75079-1.4693 1.9213-2.1969 2.6011-0.72753 0.67984-2.0674 1.612-2.9776 2.0714-0.91016 0.45944-2.4433 1.0011-3.4069 1.2037-1.3161 0.27667-3.8915 0.35851-10.351 0.32895-4.7294-0.0217-9.0157-0.083-9.525-0.13636zm45.575-0.20563c-0.7639-0.21238-1.8701-0.63166-2.4583-0.93173-0.5882-0.30007-1.5511-1.0419-2.1398-1.6486s-1.289-1.5316-1.5563-2.0554c-0.26725-0.52386-0.68654-1.7192-0.93173-2.6564l-0.44582-1.7039 0.30419-2.249c0.16732-1.2369 0.46945-3.4396 0.67138-4.8948 0.20196-1.4552 0.5483-4.015 0.76965-5.6885s0.58661-4.4119 0.81169-6.0854 0.58994-4.4715 0.81081-6.2177c0.22088-1.7462 0.53166-4.1275 0.69062-5.2917 0.15899-1.1642 0.47334-2.7715 0.69855-3.5719 0.22524-0.80037 0.80031-2.11 1.2779-2.9104 0.47763-0.80036 1.4414-2.0023 2.1418-2.671 0.70035-0.66868 1.8687-1.5709 2.5963-2.005 0.72761-0.43408 1.9097-0.9883 2.6268-1.2316l1.3039-0.44238 28.348 4.3e-4 1.1906 0.46916c0.65485 0.25804 1.554 0.66552 1.9981 0.90551 0.4441 0.24 1.2988 0.96944 1.8994 1.621 0.60057 0.65155 1.3399 1.6707 1.643 2.2648 0.30305 0.59407 0.646 1.7748 0.76213 2.6238 0.12824 0.93786 0.0855 2.6788-0.10893 4.4363-0.17603 1.591-0.45061 3.7856-0.61021 4.877-0.1596 1.0914-0.41881 2.9964-0.57602 4.2333-0.15724 1.2369-0.44662 3.4396-0.6431 4.8948-0.19645 1.4552-0.54144 4.0151-0.76663 5.6886s-0.6504 4.7834-0.94491 6.911c-0.2945 2.1276-0.71807 4.3858-0.94125 5.0184-0.22318 0.63256-0.68765 1.6311-1.0321 2.2189-0.34449 0.58783-1.2626 1.705-2.0402 2.4826-0.77761 0.77762-1.9159 1.7081-2.5295 2.0677-0.61364 0.35961-1.7455 0.90276-2.5153 1.207l-1.3996 0.55316-13.758 0.0841c-11.439 0.0699-13.992 0.019-15.147-0.30206zm25.174-13.067c0.24836-0.27446 0.56335-1.2567 0.69993-2.1828 0.13658-0.92608 0.60899-4.3627 1.0498-7.6369 0.44079-3.2742 0.85828-6.3103 0.92773-6.7469 0.0694-0.43657 0.30189-2.163 0.51655-3.8365 0.21463-1.6735 0.46162-3.4594 0.54887-3.9688 0.10613-0.61957 0.0282-1.1012-0.23553-1.4552l-0.39417-0.52917-16.731-0.1538-0.78411 0.78412c-0.56523 0.56522-0.78412 1.0382-0.78412 1.6944 0 0.50065-0.12272 1.5516-0.27268 2.3354-0.15 0.78385-0.38442 2.3777-0.52094 3.5418-0.13655 1.1642-0.41765 3.3668-0.62468 4.8948-0.20704 1.528-0.51165 3.7306-0.67694 4.8948-0.16528 1.1642-0.47024 3.3419-0.67768 4.8395-0.20746 1.4975-0.30218 2.9263-0.2105 3.175 0.0917 0.24871 0.29443 0.53967 0.45059 0.64658 0.15613 0.10692 4.1052 0.19621 8.7757 0.19844l8.4918 4e-3 0.45162-0.49902zm-192.02 12.493c-0.097-0.097-0.17639-0.65281-0.17639-1.2351s0.11699-1.7828 0.25997-2.6679c0.14299-0.88505 0.50303-3.4546 0.80008-5.7102 0.29707-2.2556 0.65243-4.875 0.7897-5.8208 0.13727-0.94589 0.44058-3.1485 0.67403-4.8948 0.23344-1.7462 0.54454-3.9489 0.69133-4.8948 0.14679-0.94589 0.37216-2.6723 0.50088-3.8365 0.12869-1.1642 0.41913-3.4264 0.6454-5.0271s0.59142-4.2796 0.81145-5.9531 0.57494-4.4119 0.78867-6.0854c0.21375-1.6735 0.48646-3.3999 0.60603-3.8365l0.2174-0.79375h9.739l1.0848 2.5135c0.59667 1.3824 3.3822 7.9309 6.1902 14.552 2.808 6.6212 5.2112 12.153 5.3405 12.293 0.14711 0.15909 0.42254 0.06 0.73562-0.26458 0.27528-0.28538 1.662-2.1858 3.0817-4.223s3.3915-4.8948 4.382-6.35c0.99044-1.4552 4.2769-6.2177 7.3033-10.583l5.5025-7.9375 4.8317-0.0721c4.0094-0.0598 4.8566-7e-3 4.9779 0.30901 0.0804 0.20962-0.0335 1.5518-0.25315 2.9826-0.21966 1.4308-0.52821 3.6134-0.68572 4.8504-0.15748 1.2369-0.52184 3.9754-0.80965 6.0854-0.28784 2.11-0.64929 4.8485-0.80322 6.0854-0.15391 1.2369-0.44929 3.4396-0.65641 4.8948-0.20709 1.4552-0.56184 4.0746-0.78835 5.8208-0.22649 1.7462-0.5265 4.068-0.6667 5.1594-0.14018 1.0914-0.49331 3.8298-0.78478 6.0854-0.29144 2.2556-0.6667 4.994-0.83391 6.0854-0.16719 1.0914-0.42016 2.1332-0.56216 2.3151-0.19307 0.24733-1.7764 0.33073-6.2788 0.33073-4.8951 0-6.0793-0.0707-6.3343-0.37798-0.23982-0.28896-0.24284-0.86531-0.0127-2.4474 0.16549-1.1382 0.46968-3.3196 0.67601-4.8476 0.20634-1.528 0.5534-4.0283 0.77123-5.5562 0.21786-1.528 0.47392-3.4627 0.56901-4.2995 0.11285-0.99296 0.0768-1.5214-0.10395-1.5214-0.15227 0-2.0821 2.6491-4.2884 5.887-2.2064 3.2378-5.062 7.4196-6.3459 9.2927-1.2839 1.8732-2.4964 3.5084-2.6946 3.634-0.19812 0.12553-1.3344 0.23006-2.525 0.23229l-2.1648 4e-3 -0.4994-0.7276c-0.27466-0.40018-0.75033-1.3824-1.057-2.1828-0.30674-0.80037-1.9252-4.6699-3.5966-8.599-1.8073-4.2484-3.1817-7.1438-3.3911-7.1438-0.23143 0-0.42193 0.54425-0.55565 1.5875-0.1119 0.87312-0.38227 2.9567-0.60085 4.6302-0.21854 1.6735-0.52302 3.9952-0.67664 5.1594-0.15359 1.1642-0.4568 3.1857-0.67379 4.4923-0.21701 1.3066-0.53607 2.4657-0.70903 2.5756s-3.0033 0.20178-6.2896 0.20401c-3.2864 2e-3 -6.0546-0.0753-6.1516-0.17234zm57.834 1e-3c-0.1819-0.0734-0.33073-0.31723-0.33073-0.54185s0.4613-1.2565 1.0251-2.293 2.0376-3.8492 3.2752-6.2503c1.2375-2.4011 3.4694-6.7469 4.9598-9.6573 1.4904-2.9104 3.5135-6.8395 4.4957-8.7312 0.98227-1.8918 3.0679-5.9399 4.6348-8.9958 1.5669-3.0559 3.7987-7.4017 4.9597-9.6573 1.161-2.2556 2.2459-4.2437 2.411-4.4181 0.21423-0.22632 2.104-0.33093 6.6022-0.36548 3.8059-0.0292 6.4041 0.0537 6.5598 0.20935 0.14177 0.14177 0.84143 2.5684 1.5548 5.3926s1.5484 6.1468 1.8556 7.3838 0.8636 3.4396 1.2364 4.8948c0.3728 1.4552 0.76808 3.0626 0.87844 3.5719 0.11033 0.50932 0.56409 2.3548 1.0083 4.101 0.44421 1.7462 1.7711 7.0445 2.9486 11.774s2.3766 9.4519 2.6646 10.494c0.28802 1.0425 0.52366 2.1311 0.52366 2.4191s-0.18833 0.59596-0.41852 0.68429c-0.23018 0.0883-3.3173 0.1606-6.8603 0.1606h-6.4417l-0.41579-0.41577c-0.22868-0.22868-0.41577-0.43783-0.41577-0.46478 0-0.0269-0.37007-1.7746-0.82241-3.8837-0.45233-2.1091-0.91675-4.3039-1.032-4.8774-0.1153-0.57346-0.4223-1.1982-0.68225-1.3882-0.36735-0.26861-2.0386-0.32872-7.502-0.26983-3.8662 0.0417-7.1863 0.17271-7.378 0.29119-0.19172 0.11848-1.4201 2.4355-2.7297 5.1489-1.3096 2.7134-2.5696 5.1419-2.8 5.3965l-0.41892 0.46302-6.5074-0.0209c-3.5791-0.0115-6.6563-0.0809-6.8382-0.15434zm31.53-22.21c0.26101-0.10015 0.41614-0.47358 0.4122-0.99218-3e-3 -0.45738-0.122-1.3078-0.26345-1.8899-0.14142-0.58208-0.50297-2.3085-0.80349-3.8364-0.30048-1.528-0.6587-3.0527-0.79602-3.3884-0.14259-0.34853-0.37587-0.53222-0.54396-0.42833-0.16187 0.10004-0.68228 1.0295-1.1564 2.0654-0.47416 1.036-1.4723 3.1769-2.2181 4.7576-0.74581 1.5807-1.356 3.0194-1.356 3.197 0 0.17764 0.0794 0.40236 0.1764 0.49937 0.097 0.097 1.516 0.17639 3.1534 0.17639 1.6373 0 3.1653-0.0723 3.3955-0.1606zm124.76 21.976c-0.2781-0.33508-0.25762-0.99798 0.11237-3.638 0.24884-1.7756 0.56272-4.0022 0.6975-4.9481 0.13475-0.94589 0.31557-2.3151 0.40177-3.0427s0.31975-2.454 0.51898-3.8365c0.1992-1.3824 0.49532-3.5851 0.65802-4.8948 0.16269-1.3097 0.46365-3.5719 0.66881-5.0271s0.55465-4.0151 0.77666-5.6885c0.22201-1.6735 0.57994-4.4119 0.79539-6.0854 0.21547-1.6735 0.57891-4.531 0.80764-6.35s0.54123-4.1127 0.69445-5.0972c0.20227-1.2999 0.41624-1.8636 0.78155-2.0591 0.32867-0.17589 5.5708-0.24332 15.123-0.19451l14.62 0.0748 1.5086 0.60953c0.8297 0.33525 2.106 1.1467 2.8362 1.8032 0.84471 0.75948 1.6433 1.8346 2.1956 2.9559l0.86799 1.7623v2.52c-1.6e-4 1.386-0.21701 4.0082-0.48191 5.8272-0.26493 1.819-0.59441 4.2598-0.73221 5.424-0.13782 1.1642-0.42989 2.7404-0.64905 3.5026-0.21918 0.76228-0.80116 2.073-1.2932 2.9126-0.49213 0.83968-1.5906 2.1873-2.4409 2.9946s-2.111 1.7394-2.8015 2.0712c-0.6904 0.33179-1.3247 0.71558-1.4096 0.85286-0.0848 0.13729 0.4105 1.2283 1.1007 2.4245 0.69025 1.1962 2.1672 3.7227 3.2822 5.6145 1.115 1.8918 2.7748 4.7195 3.6886 6.2838 0.94125 1.6113 1.5954 3.0163 1.5091 3.2412l-0.15232 0.39694h-15.006l-0.53572-0.59532c-0.29467-0.32742-0.89199-1.2502-1.3274-2.0505-0.4354-0.80036-1.7772-3.1816-2.9819-5.2917-1.2046-2.1101-2.7175-4.789-3.3619-5.9531-0.64442-1.1642-1.3742-2.3695-1.6218-2.6785-0.25117-0.31355-0.88771-0.62761-1.4403-0.71065-0.66484-0.0999-1.1118-0.0272-1.3602 0.22113-0.20346 0.20346-0.51035 1.4162-0.68199 2.695-0.17161 1.2788-0.47693 3.5157-0.67849 4.9709-0.20159 1.4552-0.43056 3.1816-0.50885 3.8365-0.0783 0.65484-0.26461 2.0148-0.41407 3.0221-0.14944 1.0073-0.40294 1.9896-0.56333 2.1828-0.22773 0.27407-1.6748 0.35138-6.5771 0.35138h-6.2852l-0.34005-0.40974zm27.118-28.54c0.49334-0.20613 1.0942-0.67579 1.3353-1.0437 0.24106-0.36791 0.54676-1.3601 0.67937-2.2049 0.13261-0.8448 0.31721-2.4352 0.41026-3.5342l0.16918-1.9982-1.6966-1.4275h-4.4452c-3.2338 0-4.5198 0.0901-4.7189 0.33073-0.15052 0.1819-0.41246 1.3428-0.58206 2.5797-0.16962 1.2369-0.47167 3.2968-0.67125 4.5776-0.19957 1.2808-0.29667 2.5012-0.21579 2.712 0.12017 0.31317 0.94239 0.38331 4.4929 0.38331 3.1505 0 4.5925-0.10308 5.2428-0.37477zm-426.87-46.679c-0.35313-0.05-0.90842-0.26538-1.234-0.47869-0.32556-0.21332-0.79174-0.80893-1.036-1.3236l-0.44404-0.93574 0.43944-3.216c0.24169-1.7688 0.61443-4.4527 0.82831-5.9644 0.21388-1.5116 0.49358-2.9404 0.62155-3.175 0.12797-0.23462 0.63712-0.81553 1.1314-1.2909 0.49432-0.47537 1.307-0.98139 1.8059-1.1245 0.49892-0.14309 2.5153-0.2595 4.4808-0.25869 1.9655 7.94e-4 4.0178 0.12484 4.5608 0.27563 0.59867 0.16626 1.2494 0.61803 1.6536 1.148 0.5435 0.71256 0.6665 1.1709 0.6665 2.4836 0 1.1282-0.12766 1.7374-0.42676 2.0365-0.32978 0.32978-0.85524 0.40923-2.3123 0.34963l-1.8855-0.07713-0.09742-0.52917c-0.05358-0.29104-0.21825-0.678-0.36593-0.8599-0.16994-0.20932-0.9608-0.32924-2.1543-0.32668-1.0372 0.0021-2.0523 0.10944-2.2557 0.23825-0.24904 0.15769-0.52716 1.5163-0.85127 4.1585-0.26476 2.1584-0.3946 4.0111-0.28853 4.1172 0.10607 0.10607 1.0979 0.2272 2.204 0.26919l2.0111 0.0763 1.6079-1.7198h1.4624c0.96352 0 1.6013 0.13889 1.8696 0.40712 0.27488 0.27487 0.35899 0.68309 0.25896 1.2568-0.08149 0.46731-0.26282 1.2288-0.40297 1.6921-0.14015 0.46334-0.72477 1.267-1.2992 1.7859-0.73413 0.66325-1.2995 0.94663-1.9035 0.95404-0.47252 6e-3 -2.4665 0.0356-4.431 0.0663s-3.8608 0.0149-4.2139-0.0351zm283.13 0.0306c-1.8738-0.0626-2.9295-0.21832-3.3506-0.49424-0.33816-0.22157-0.81727-0.82945-1.0647-1.3508-0.30057-0.63335-0.40675-1.3307-0.31991-2.101 0.0715-0.63416 0.27824-1.3317 0.45945-1.55 0.23379-0.28169 0.85172-0.39702 2.1271-0.39702h1.7976l0.49088 0.67386 0.49086 0.67386 1.9332 0.0359c1.4178 0.0263 1.9986-0.0652 2.1786-0.34314 0.13496-0.20843 0.21495-0.60682 0.17772-0.8853-0.0554-0.41453-0.73165-0.68409-3.7299-1.4868-2.457-0.65779-3.8502-1.1692-4.2333-1.5541l-0.5711-0.5737 0.0632-2.2818c0.0468-1.691 0.20928-2.5835 0.62738-3.4471 0.34036-0.70311 0.98927-1.447 1.636-1.8755l1.0719-0.71015 8.3517-0.16838 0.96914 0.45989c0.53303 0.25294 1.1928 0.82661 1.4661 1.2748 0.31276 0.5129 0.49731 1.311 0.49795 2.1534 0 0.73617-0.15203 1.5477-0.33904 1.8035s-0.83431 0.53129-1.4384 0.61232c-0.60415 0.08103-1.4929 0.07251-1.9751-0.01894-0.59843-0.1135-1.0197-0.41773-1.3274-0.95863l-0.45072-0.79235h-1.8115c-1.0561 0-1.9439 0.13239-2.129 0.3175-0.17462 0.17462-0.3175 0.58716-0.3175 0.91673s0.22088 0.71744 0.49086 0.86192c0.26995 0.14448 1.2522 0.38697 2.1828 0.53885 0.93057 0.15189 2.329 0.44697 3.1076 0.65573 0.77861 0.20876 1.6582 0.59554 1.9547 0.85952 0.29649 0.26398 0.68622 0.83714 0.86606 1.2737 0.24111 0.58524 0.25993 1.2455 0.0717 2.5135-0.14044 0.94589-0.47548 2.2143-0.74454 2.8187-0.26905 0.6044-0.89159 1.4058-1.3834 1.781l-0.89423 0.68208-2.0982 0.0868c-1.154 0.0477-3.3293 0.0457-4.834-5e-3zm-267.78-0.44077c-0.23307-0.28084-0.17769-1.3024 0.23308-4.2995 0.29634-2.1621 0.65529-4.705 0.79765-5.6509 0.14236-0.94589 0.38531-2.7318 0.53988-3.9688 0.21515-1.7218 0.40923-2.3575 0.8279-2.712 0.36785-0.31145 0.99708-0.46302 1.9222-0.46302 0.75643 0 1.5946 0.16033 1.8626 0.3563l0.48726 0.3563-0.3044 2.3736c-0.16742 1.3055-0.3044 2.5784-0.3044 2.8286v0.45503l4.8762-0.15215 0.19744-0.79375c0.1086-0.43656 0.27221-1.608 0.36359-2.6033 0.11924-1.2987 0.31544-1.9588 0.695-2.3384l0.52886-0.52886 1.6304 0.17917c0.983 0.10803 1.7583 0.34287 1.9526 0.59142 0.17724 0.22674 0.25359 0.52335 0.16967 0.65914-0.08392 0.13579-0.25507 1.4577-0.38033 2.9376-0.12526 1.4799-0.40224 3.9409-0.61552 5.4688-0.21328 1.528-0.52492 3.7306-0.69252 4.8948-0.16761 1.1642-0.42804 2.2655-0.57873 2.4474-0.16975 0.20491-0.95397 0.33073-2.0613 0.33073-1.1822 0-1.8882-0.12155-2.0853-0.35905-0.21813-0.26283-0.22396-1.0804-0.02178-3.0508 0.15192-1.4804 0.20488-2.8072 0.11768-2.9482-0.0872-0.14109-1.0743-0.2547-2.1934-0.25247-1.1192 0.0021-2.2013 0.1094-2.4046 0.23816-0.24414 0.15458-0.46883 1.1902-0.66146 3.0488-0.20396 1.968-0.41112 2.89-0.6886 3.0651-0.21828 0.1377-1.186 0.25219-2.1504 0.25442-1.1798 3e-3 -1.8536-0.11648-2.0593-0.36432zm16.97 0.0376c-0.19462-0.23893 0.86189-2.5319 3.8064-8.2612 2.2417-4.3617 4.2529-8.1075 4.4693-8.3239 0.27325-0.27326 0.95892-0.3935 2.2438-0.3935 1.0272 0 1.9839 0.13356 2.1505 0.30021 0.16512 0.16512 0.82225 2.3035 1.4603 4.7521 0.63805 2.4485 1.2851 5.1067 1.4378 5.907 0.15274 0.80037 0.52231 2.3793 0.82127 3.5088 0.43617 1.6479 0.47899 2.1314 0.21675 2.4474-0.23004 0.27718-0.85344 0.39377-2.1055 0.39377-1.3862 0-1.8752-0.1066-2.216-0.48319-0.24051-0.26576-0.54404-1.0546-0.67452-1.753-0.13048-0.69842-0.39864-1.3721-0.59591-1.4971s-1.263-0.2291-2.3682-0.23133c-1.5969-3e-3 -2.0973 0.093-2.4373 0.46864-0.23528 0.25998-0.67532 1.0323-0.97787 1.7163-0.30255 0.68397-0.77552 1.3642-1.051 1.5117-0.27552 0.14746-1.2681 0.2681-2.2057 0.2681-1.0438 0-1.8092-0.12824-1.9742-0.33073zm9.9625-7.5816c0.2722-0.1724 0.31798-0.54588 0.17985-1.467-0.11518-0.76807-0.30344-1.1975-0.49745-1.1346-0.17168 0.0556-0.52794 0.55279-0.79169 1.1049-0.26376 0.55208-0.41632 1.1686-0.33904 1.37 0.07729 0.2014 0.35262 0.36436 0.61185 0.36214 0.25923-0.0021 0.63564-0.10813 0.83648-0.23533zm9.6874 7.476c-0.26862-0.26862-0.37515-0.64996-0.27716-0.99219 0.087537-0.30572 0.2806-1.5084 0.42902-2.6725 0.14843-1.1642 0.59779-4.5574 0.99859-7.5406l0.72873-5.424h3.4015l0.76623 1.5875c0.42143 0.87312 0.9819 2.1828 1.2455 2.9104 0.2636 0.7276 0.77045 2.017 1.1263 2.8652 0.35589 0.84827 0.7682 1.6634 0.91624 1.8115 0.18249 0.18249 0.76786-0.42002 1.8179-1.8711 0.85181-1.1772 1.9861-2.8258 2.5206-3.6635 0.53451-0.83779 1.407-2.0293 1.9388-2.6477l0.96701-1.1245h1.4063c1.0414 0 1.4482 0.10916 1.5677 0.42075 0.0888 0.23142 0.10469 0.5126 0.03531 0.62486-0.06938 0.11226-0.25338 1.2624-0.40889 2.5558-0.15551 1.2934-0.39755 3.5423-0.53787 4.9975-0.14031 1.4552-0.43946 3.8321-0.66477 5.282-0.22531 1.4499-0.53678 2.7893-0.69216 2.9766-0.17563 0.21163-0.91371 0.3404-1.951 0.3404-1.179 0-1.7931-0.12461-2.0933-0.42475-0.23361-0.23362-0.36782-0.62057-0.29823-0.8599 0.069588-0.23933 0.25222-1.1416 0.40586-2.0051 0.15363-0.86347 0.27933-1.7932 0.27933-2.0661 0-0.27291-0.12189-0.42086-0.27087-0.32878-0.14898 0.0921-0.98461 1.2289-1.8569 2.5262-0.87234 1.2974-1.8936 2.5603-2.2694 2.8066-0.50206 0.32896-0.79904 0.37544-1.1196 0.17522-0.23997-0.14989-0.57637-0.55841-0.74757-0.90784s-0.69329-1.5581-1.1602-2.6858c-0.46691-1.1278-0.94965-2.0505-1.0727-2.0505-0.1231 0-0.27869 0.26789-0.34577 0.59531-0.067074 0.32742-0.24223 1.4857-0.38923 2.574-0.18155 1.344-0.41485 2.0866-0.72741 2.3151-0.25308 0.18505-1.0837 0.33646-1.8459 0.33646-0.93467 0-1.5278-0.14202-1.8221-0.43632zm21.985 0.0887-0.47547-0.34767 0.42367-2.8935c0.23302-1.5914 0.5409-3.7864 0.68419-4.8779 0.14328-1.0914 0.44344-3.3437 0.66702-5.0052 0.22357-1.6614 0.53819-3.1795 0.69915-3.3734 0.22448-0.27049 1.4311-0.35262 5.1803-0.35262h4.8877l0.77244 0.55003c0.42484 0.30251 0.96088 0.91442 1.1912 1.3598l0.41875 0.80978-0.47816 3.0489c-0.31411 2.0029-0.6634 3.3208-1.0181 3.8414-0.29694 0.43585-0.87381 1.0399-1.2819 1.3422l-0.74204 0.54978-2.9025 0.0994c-2.3555 0.0806-2.9442 0.18104-3.1242 0.53287-0.12196 0.23844-0.29471 1.267-0.3839 2.2856-0.12663 1.4462-0.28597 1.9535-0.72714 2.3151-0.3772 0.30913-1.0221 0.46302-1.9403 0.46302-0.75643 0-1.5893-0.15645-1.8508-0.34767zm8.841-9.7065c0.29104-0.29104 0.52917-0.75756 0.52917-1.0367 0-0.27914 0.06638-0.68051 0.14751-0.89193 0.08113-0.21142-0.05217-0.58408-0.29621-0.82812-0.32563-0.32563-0.80499-0.42273-1.8012-0.36484l-1.3574 0.07887-0.327 1.3229c-0.17985 0.7276-0.26112 1.5313-0.18061 1.7859 0.11338 0.35861 0.44069 0.46302 1.4515 0.46302 0.95231 0 1.4481-0.14304 1.8343-0.52917zm7.1598 9.6766c-0.24407-0.29409-0.13306-1.6837 0.50197-6.2839 0.44843-3.2484 0.9409-6.7397 1.0944-7.7584 0.15347-1.0186 0.33775-2.0604 0.40951-2.3151l0.13047-0.46302h2.1071c1.6665 0 2.1403 0.08646 2.2658 0.41346 0.08727 0.22741-0.21916 3.1742-0.68095 6.5484-0.46179 3.3742-0.96469 6.9404-1.1176 7.9247-0.19794 1.2746-0.41819 1.8648-0.76516 2.0505-0.26797 0.14341-1.1948 0.26075-2.0597 0.26075-1.0393 0-1.6788-0.12803-1.8859-0.37758zm10.275-0.0185c-0.37933-0.20618-0.88535-0.67347-1.1245-1.0384-0.23914-0.36496-0.43762-1.0547-0.44107-1.5328-0.0035-0.47806 0.30484-3.1909 0.68512-6.0286 0.38026-2.8377 0.87826-5.5466 1.1066-6.0199 0.22836-0.47329 0.8428-1.1877 1.3654-1.5875l0.95017-0.72697 10.583-0.14714 0.84365 0.52282c0.52144 0.32314 0.93607 0.85747 1.0856 1.399 0.13452 0.48718 0.15497 1.991 0.04609 3.3872-0.10774 1.3811-0.33994 3.523-0.51602 4.76-0.17608 1.2369-0.43632 2.8752-0.5783 3.6407-0.14957 0.80627-0.54155 1.7285-0.93184 2.1923-0.37052 0.44033-1.0108 0.97492-1.4228 1.188-0.58415 0.30207-1.8735 0.38504-5.8554 0.37678-3.8887-8e-3 -5.2708-0.1-5.7961-0.38547zm9.1375-4.253c0.22868-0.22868 0.41577-0.73283 0.41577-1.1203 0-0.38751 0.19794-2.0287 0.43984-3.647 0.24194-1.6184 0.36473-3.1383 0.27289-3.3776-0.13938-0.36324-0.59997-0.4351-2.7887-0.4351-1.9669 0-2.7012 0.09578-2.94 0.38348-0.17505 0.21091-0.49289 2.1352-0.70636 4.2761-0.31724 3.1819-0.32544 3.9324-0.04487 4.1104 0.18878 0.11975 1.3765 0.21955 2.6395 0.22178 1.7387 3e-3 2.3972-0.0969 2.712-0.41172zm8.4983 4.2942-0.48535-0.35488 0.29467-1.6956c0.16208-0.93261 0.46725-2.9458 0.67821-4.4738 0.21095-1.528 0.59044-4.3259 0.84328-6.2177 0.25286-1.8918 0.5746-3.5884 0.71498-3.7703 0.15634-0.20255 0.90104-0.33073 1.9215-0.33073h1.6662l1.3124 1.3891c0.72181 0.76398 1.9287 2.1361 2.682 3.0491 0.7533 0.91301 1.4666 1.6001 1.5851 1.5269 0.11851-0.07324 0.37216-1.2744 0.56367-2.6692 0.1915-1.3948 0.49144-2.732 0.66651-2.9714 0.25128-0.34364 0.70022-0.42123 2.1316-0.36838 0.99732 0.03682 1.9232 0.17682 2.0575 0.3111 0.14912 0.14914 0.11869 1.1485-0.07824 2.5682-0.1773 1.2782-0.50139 3.6338-0.72022 5.2345-0.21881 1.6007-0.58108 4.1606-0.80502 5.6885-0.22392 1.528-0.52948 2.927-0.679 3.1089-0.16515 0.20087-0.92697 0.33073-1.9404 0.33073-1.189 0-1.7923-0.12386-2.0995-0.43099-0.23704-0.23705-0.37142-0.5862-0.29864-0.77589 0.07279-0.18969 0.21159-1.0452 0.30842-1.9011l0.17605-1.5562-1.0208-1.2097c-0.56142-0.66536-1.5334-1.8186-2.16-2.5627-0.62653-0.74412-1.2876-1.3529-1.469-1.3529-0.2263 0-0.52491 1.4187-0.95112 4.5188-0.38777 2.8204-0.76258 4.6601-0.99727 4.8948-0.23757 0.23757-0.9349 0.37601-1.894 0.37601-0.85191 0-1.731-0.15573-2.0033-0.35488zm19.711-0.46801c-0.41338-0.45259-0.82283-1.1791-0.90993-1.6146-0.08707-0.43543-0.08342-1.2601 0.0082-1.8326 0.09639-0.60288 0.3669-1.1482 0.64286-1.2959 0.26202-0.14023 1.1355-0.25497 1.9411-0.25497h1.4647l1.1737 1.5875h1.7613c1.4026 0 1.8552-0.10376 2.2224-0.50948 0.25358-0.28021 0.41992-0.72307 0.36965-0.98413-0.06734-0.34962-0.68334-0.6347-2.3383-1.0821-1.2358-0.33409-2.9017-0.79662-3.7021-1.0278-0.80036-0.2312-1.7231-0.66682-2.0505-0.96805l-0.59531-0.54768 0.0026-1.8721c0-1.0297 0.12443-2.3149 0.27474-2.8561s0.58055-1.3491 0.95607-1.7954c0.37555-0.44631 1.039-0.99568 1.4744-1.2208 0.59947-0.31 1.6676-0.41038 4.4003-0.41354 1.9847-0.0024 3.9973 0.0076 4.4724 0.02199 0.59124 0.01791 1.1756 0.31212 1.8521 0.93245l0.9883 0.90628-0.0087 1.5772c-5e-3 0.91659-0.15719 1.756-0.36314 2.0041-0.26371 0.31775-0.82341 0.42698-2.1878 0.42698h-1.8334l-0.27669-0.79375-0.27673-0.79375h-4.1929l-0.31073 0.682c-0.22082 0.48464-0.23008 0.81005-0.03204 1.1245 0.18793 0.29831 1.2608 0.64173 3.293 1.054 1.6579 0.33636 3.3702 0.81857 3.8053 1.0716 0.43505 0.25301 0.96626 0.77222 1.1804 1.1538l0.38941 0.69379-0.33703 2.3311c-0.20106 1.3906-0.55941 2.6909-0.88815 3.2228-0.30311 0.49044-0.92078 1.1171-1.3726 1.3926l-0.82148 0.50092-9.4225 2e-3 -0.7516-0.82289zm16.648 0.41567c-0.27572-0.33222-0.2327-1.3189 0.23368-5.3578 0.3144-2.7228 0.74978-6.2563 0.9675-7.8521 0.24215-1.7748 0.55105-3.0566 0.7955-3.3011 0.29578-0.29579 0.86199-0.37886 2.1791-0.31972 0.97869 0.04395 1.8642 0.21708 1.9678 0.38474 0.10362 0.16765 0.1051 0.84327 3e-3 1.5014-0.10171 0.6581-0.18502 1.8514-0.18502 2.6518v1.4552l4.6008 0.15246 0.24294-0.47311c0.13359-0.26021 0.31779-1.4018 0.40931-2.5368 0.0915-1.135 0.29068-2.2959 0.44255-2.5797l0.27617-0.516h2.079c1.6612 0 2.1117 0.08504 2.2414 0.42306 0.0893 0.23268 0.0441 1.1554-0.10051 2.0505-0.14457 0.89511-0.43739 2.8181-0.65069 4.2733-0.21328 1.4552-0.59738 4.2403-0.85352 6.189-0.26988 2.0531-0.61688 3.6943-0.82518 3.9026-0.22688 0.22689-0.97481 0.35946-2.028 0.35946-1.1983 0-1.7663-0.11788-2.0156-0.4183-0.28081-0.33835-0.287-0.76916-0.0324-2.2539 0.17315-1.0096 0.31478-2.3096 0.31478-2.889v-1.0534h-2.2166c-1.4515 0-2.3106 0.11416-2.4891 0.33074-0.14989 0.1819-0.40259 1.0372-0.56155 1.9007-0.15896 0.86347-0.28903 1.9648-0.28903 2.4474 0 0.52467-0.21275 1.0902-0.52917 1.4066-0.40912 0.40913-0.88194 0.52917-2.0843 0.52917-1.0771 0-1.659-0.12517-1.893-0.40721zm18.715 0.11409c-0.38102-0.22169-0.44696-0.49761-0.33009-1.381 0.0804-0.60719 0.32652-2.4732 0.54708-4.1467 0.22055-1.6735 0.51562-3.6975 0.65571-4.4979 0.1401-0.80036 0.37296-2.5268 0.51748-3.8365 0.20558-1.8631 0.37909-2.4766 0.79734-2.8193 0.41881-0.34318 0.89311-0.40824 2.1898-0.30036 0.96451 0.08025 1.7805 0.29439 1.9555 0.51319 0.19635 0.24552 0.22651 0.71579 0.0871 1.3587-0.11729 0.54077-0.3556 1.9952-0.52961 3.2322-0.17402 1.2369-0.58457 4.3227-0.91234 6.8574-0.47903 3.7043-0.69054 4.6776-1.0781 4.9609-0.26879 0.19655-1.1328 0.34896-1.9529 0.34447-0.80894-4e-3 -1.6851-0.13271-1.947-0.28508zm9.1413 0.1179c-0.19423-0.0784-0.33073-0.61375-0.33073-1.2971 0-0.64002 0.11454-1.9696 0.25455-2.9545 0.14-0.98497 0.3787-2.9219 0.53044-4.3044s0.44058-3.7444 0.64191-5.2488c0.20129-1.5044 0.47114-2.8404 0.59965-2.969s0.46926-0.25594 0.75721-0.28318c0.28795-0.02724 2.5791-0.03066 5.0915-0.0076l4.568 0.04192 1.9766 1.8156-0.0612 2.0688c-0.0337 1.1378-0.18942 2.6865-0.34611 3.4415-0.15668 0.75501-0.54583 1.7561-0.86481 2.2246-0.31896 0.46854-0.9157 1.101-1.3261 1.4054-0.62127 0.46086-1.2097 0.56865-3.5156 0.64401l-2.7695 0.0905-0.35729 0.57095c-0.19654 0.31402-0.41831 1.3973-0.49289 2.4072-0.0996 1.3497-0.26112 1.9281-0.60945 2.1828-0.26656 0.19491-1.1173 0.33736-1.9446 0.32561-0.80894-0.0115-1.6196-0.0809-1.8015-0.15434zm8.772-9.8509c0.32795-0.36237 0.43087-0.85691 0.37174-1.7859l-0.0818-1.2848-1.4302-0.0814c-0.94168-0.0536-1.5005 0.03245-1.6362 0.25193-0.11332 0.18333-0.28382 0.89908-0.37893 1.5906-0.0951 0.69148-0.0959 1.3818-3e-3 1.534 0.0941 0.15223 0.74089 0.27678 1.4374 0.27678 0.90667 0 1.3951-0.14232 1.7198-0.50114zm12.955 9.0813c-0.49014-0.51969-0.90845-1.2043-0.92962-1.5214-0.0212-0.31706-0.0137-0.99319 0.0164-1.5025 0.0328-0.55417 0.27249-1.112 0.59693-1.3891 0.35877-0.30639 0.98779-0.46302 1.8596-0.46302h1.3175l1.393 1.5875h1.6782c0.92305 0 1.9086-0.12325 2.19-0.27389 0.29041-0.15541 0.51179-0.55196 0.51179-0.91673 0-0.35356-0.20836-0.75415-0.46302-0.89019s-1.8322-0.57891-3.5057-0.98416c-2.4349-0.58964-3.1956-0.88915-3.8083-1.4994l-0.76563-0.7626 0.15309-2.3631c0.11197-1.7281 0.30829-2.6392 0.73067-3.3907 0.31766-0.56521 1.0404-1.2878 1.6061-1.6057l1.0285-0.57805 4.1829-0.01447c3.3784-0.0117 4.3441 0.06891 5.0212 0.41905 0.46109 0.23844 1.019 0.78278 1.2397 1.2097 0.22074 0.42687 0.40134 1.2913 0.40134 1.921 0 0.62969-0.18534 1.4095-0.41188 1.7329l-0.41187 0.58804h-3.396l-0.41048-0.79375-0.41047-0.79375h-1.9247c-1.1442 0-2.0534 0.12875-2.2422 0.3175-0.17462 0.17462-0.3175 0.6461-0.3175 1.0477v0.73021l0.99219 0.26169c0.5457 0.14393 2.1489 0.5135 3.5626 0.82126l2.5704 0.55957 0.7057 0.83868 0.70569 0.83868-0.14996 2.1249c-0.0852 1.2076-0.37489 2.6497-0.67101 3.3405-0.33343 0.77783-0.85111 1.4196-1.4376 1.782l-0.91652 0.56643h-9.4l-0.89114-0.94488zm16.74 0.60719-0.46183-0.33769 0.80523-5.8139c0.44286-3.1976 0.87527-6.7264 0.96087-7.8418 0.0856-1.1154 0.29977-2.225 0.47588-2.4659l0.32022-0.43792 5.9154 0.02656c3.2535 0.01461 6.0286 0.09652 6.167 0.18203 0.14335 0.0886 0.17487 0.68257 0.0733 1.381-0.0981 0.67402-0.34811 1.49-0.55573 1.8133l-0.37748 0.58785-7.2545 0.14721-0.25615 0.89437-0.25617 0.89437 0.51121 0.37424c0.35647 0.26098 1.1622 0.35998 2.6622 0.32713 1.1831-0.0259 2.298 0.04376 2.4777 0.15483 0.21768 0.13452 0.28493 0.63733 0.20146 1.5061-0.0689 0.71726-0.26694 1.4459-0.44003 1.6193-0.18558 0.18583-1.3681 0.3529-2.8816 0.40712-1.4118 0.05058-2.7157 0.21399-2.8976 0.36312-0.1819 0.14914-0.33073 0.6115-0.33073 1.0275 0 0.56683 0.14914 0.79107 0.59531 0.89503 0.32742 0.0763 2.0836 0.16786 3.9026 0.20348l3.3073 0.0648-0.0838 1.5875c-0.0461 0.87313-0.25717 1.8554-0.4691 2.1828l-0.38534 0.59532h-5.6319c-4.1498 0-5.7534-0.0889-6.0937-0.33769zm15.971-0.0596c-0.2164-0.26076-0.2809-0.87445-0.18772-1.7859 0.0781-0.76376 0.39288-3.1151 0.69956-5.2251 0.30665-2.1101 0.68051-4.9574 0.83077-6.3274 0.15028-1.37 0.39018-2.7095 0.53313-2.9766 0.14293-0.26709 0.40452-0.48803 0.58132-0.49098 0.17677-0.0029 2.1074-0.0089 4.2902-0.01328 2.1828-0.0044 4.35-0.0019 4.8159 0.0054 0.61701 0.0097 1.1022 0.27587 1.7859 0.97992l0.93877 0.96663 3e-3 1.2162c0 0.6689-0.20253 2.2823-0.45225 3.5853l-0.454 2.3691-1.003 0.97333c-0.55163 0.53533-1.003 1.0919-1.003 1.2368s0.38695 0.90638 0.8599 1.6921c0.47294 0.78577 1.0904 1.9403 1.3722 2.5657l0.51226 1.137-0.37997 0.24044c-0.20896 0.13224-1.23 0.24226-2.2689 0.24449-1.4214 3e-3 -2.0224-0.11054-2.4282-0.45897-0.2966-0.25466-1.0373-1.4416-1.646-2.6377-0.60873-1.1961-1.2782-2.317-1.4877-2.4908-0.29953-0.24857-0.46659-0.23043-0.78194 0.0849-0.25533 0.25534-0.45776 1.1512-0.55719 2.466-0.11367 1.5028-0.28898 2.1978-0.64402 2.5528-0.36343 0.36341-0.88453 0.48785-2.043 0.48785-1.0602 0-1.66-0.12642-1.8848-0.39728zm8.6622-9.7968c0.31761-0.22246 0.65524-0.81908 0.75031-1.3258 0.10916-0.58189 0.0524-1.0665-0.15412-1.3153-0.20569-0.24784-0.79365-0.39398-1.5851-0.39398-0.69197 0-1.3762 0.14883-1.5206 0.33073-0.14435 0.1819-0.34462 0.78624-0.445 1.343-0.11647 0.64572-0.0693 1.1487 0.13017 1.3891 0.17201 0.20725 0.74793 0.37682 1.2798 0.37682 0.5319 0 1.227-0.18202 1.5446-0.40448zm8.792 9.7868c-0.27213-0.32787-0.27509-0.85674-0.0153-2.712 0.17751-1.2676 0.48683-3.5548 0.68739-5.0828 0.20055-1.528 0.4904-4.0283 0.64407-5.5562 0.2313-2.2995 0.37574-2.8579 0.83834-3.2412 0.44079-0.36528 0.92125-0.44107 2.2741-0.35871 0.9434 0.05742 1.8486 0.23774 2.0116 0.4007 0.21865 0.21866 0.17428 1.1791-0.16936 3.666-0.25612 1.8533-0.63992 4.6199-0.85291 6.1478-0.21299 1.528-0.51023 3.6054-0.66051 4.6166s-0.40185 1.9934-0.55904 2.1828c-0.18301 0.22057-0.92821 0.34436-2.073 0.34436-1.2863 0-1.8821-0.11418-2.1253-0.4073zm8.759-0.0863c-0.18137-0.33888-0.14674-1.2303 0.11044-2.8443 0.20603-1.2929 0.7008-4.7846 1.0995-7.7594 0.56184-4.192 0.83251-5.5163 1.2032-5.887l0.47827-0.47826h5.4413c3.443 0 5.6406 0.10661 5.9838 0.29031l0.54245 0.29031-0.17817 1.343c-0.098 0.73863-0.29456 1.5605-0.43685 1.8264l-0.25871 0.4834h-3.6624c-2.8644 0-3.7314 0.083-3.9786 0.38088-0.17386 0.20948-0.27773 0.7155-0.23085 1.1245l0.0853 0.7436 2.5135 0.13229c1.3824 0.07276 2.6708 0.23381 2.863 0.35788 0.24799 0.16013 0.29821 0.544 0.17301 1.3229-0.097 0.60353-0.34629 1.3652-0.55396 1.6926l-0.37753 0.59531h-2.6114c-2.1372 0-2.6406 0.076-2.772 0.41852-0.0883 0.23018-0.1606 0.70643-0.1606 1.0583 0 0.41885 0.15991 0.65261 0.46302 0.67687 0.25466 0.0204 1.7935 0.0114 3.4197-0.02 1.8427-0.0355 3.1723 0.0584 3.5292 0.24939l0.57253 0.30642-0.18606 1.6318c-0.10234 0.89748-0.29567 1.8402-0.42963 2.0948l-0.24357 0.46302h-12.134l-0.26416-0.49357zm-229.43-23.008c-0.9534-0.24892-2.565-0.94661-3.5814-1.5504-1.0164-0.60382-2.3876-1.6748-3.0472-2.38-0.6596-0.70517-1.6315-2.055-2.1597-2.9996-0.52825-0.94459-1.1451-2.4265-1.3709-3.2932-0.22574-0.86667-0.41044-2.3679-0.41044-3.3361s0.11739-2.4017 0.26087-3.1856c0.14348-0.78385 0.75416-2.4082 1.3571-3.6096 0.81464-1.6234 1.53-2.5902 2.7851-3.7644 1.1097-1.0381 2.4679-1.957 3.9603-2.6793 1.5436-0.74717 2.9-1.19 4.2337-1.3821 1.4552-0.20964 2.4572-0.2004 3.8769 0.03576 1.1448 0.19043 2.7124 0.71306 3.8989 1.2999 1.4286 0.70652 2.5432 1.54 3.9793 2.9759 1.394 1.3937 2.2583 2.5376 2.8692 3.7975 0.48084 0.99163 1.0628 2.76 1.2932 3.9296l0.41897 2.1267-0.33885 2.0166c-0.18637 1.1091-0.56565 2.592-0.84285 3.2953-0.2772 0.70326-1.0974 2.1581-1.8228 3.233-0.72532 1.0749-1.7067 2.2472-2.1808 2.6051-0.4741 0.3579-1.6359 1.0732-2.5818 1.5895-0.94588 0.51633-2.4294 1.1232-3.2967 1.3487-0.86732 0.22546-2.4747 0.40307-3.5719 0.39468-1.0972-0.0084-2.775-0.21891-3.7284-0.46783zm5.5087-9.1868c0.53904-0.22523 1.2653-0.67171 1.6139-0.99219 0.3486-0.32048 0.85363-1.0589 1.1223-1.641 0.26865-0.58208 0.48845-1.4751 0.48845-1.9844s-0.22646-1.4249-0.50325-2.0345c-0.32844-0.72343-0.8974-1.3573-1.638-1.8248-0.62409-0.39397-1.6311-0.77226-2.2377-0.84063-0.60664-0.06838-1.5368 0.01886-2.0671 0.19387-0.53028 0.17501-1.3226 0.6198-1.7607 0.98843s-0.98493 1.0346-1.2152 1.4798c-0.23026 0.44528-0.42703 1.3646-0.43726 2.0429-0.01334 0.88379 0.1819 1.5755 0.68891 2.4406 0.5218 0.89038 1.0694 1.3876 2.0862 1.8943 0.75829 0.37787 1.7163 0.68704 2.129 0.68704 0.41266 0 1.1913-0.18428 1.7304-0.4095zm24.403 9.2488c-0.80036-0.21244-2.0505-0.68099-2.7781-1.0412-0.7276-0.36023-1.8865-1.0713-2.5754-1.5802-0.68886-0.50885-1.7907-1.61-2.4485-2.4471-0.6578-0.83705-1.4851-2.2958-1.8384-3.2417-0.3533-0.94588-0.78333-2.4302-0.95563-3.2985-0.18042-0.90917-0.24267-2.3118-0.14678-3.3073 0.091572-0.95073 0.42664-2.562 0.7446-3.5807 0.31796-1.0186 0.99295-2.4925 1.5-3.2752 0.50704-0.7827 1.7038-2.0766 2.6595-2.8754 0.95569-0.79874 2.452-1.7909 3.3251-2.2047 0.87313-0.41386 2.2971-0.93565 3.1644-1.1595 0.86732-0.22389 2.1175-0.40468 2.7781-0.40176 0.66065 0.0029 1.9729 0.11685 2.9162 0.25316 1.1015 0.15919 1.835 0.41197 2.0505 0.70671 0.2413 0.33 0.33553 1.7845 0.33553 5.1791 0 3.8067-0.07184 4.7478-0.37122 4.8627-0.20417 0.07835-0.87421-0.11415-1.489-0.42778-0.61476-0.31363-1.7403-0.63448-2.5011-0.71301-0.78272-0.08079-1.8049-0.0037-2.3542 0.17763-0.53396 0.17622-1.3412 0.63204-1.7938 1.0129-0.45265 0.38088-0.98541 1.0812-1.1839 1.5563-0.1985 0.47506-0.3609 1.3361-0.3609 1.9134 0 0.57728 0.12664 1.3848 0.28142 1.7944 0.15478 0.40966 0.60126 1.0832 0.99219 1.4967 0.39092 0.41351 1.1525 0.97906 1.6924 1.2568 0.53991 0.27771 1.3842 0.50494 1.8762 0.50494 0.49199 0 1.4605-0.17033 2.1522-0.37851 0.69173-0.20818 1.4801-0.57981 1.752-0.82584 0.27186-0.24603 0.67732-0.3771 0.90102-0.29125l0.40673 0.15608v4.5879c0 3.3041-0.09453 4.7172-0.33782 5.0499-0.1858 0.25409-0.81087 0.57166-1.3891 0.70572-0.57819 0.13405-2.0633 0.23873-3.3002 0.23263-1.2369-0.0061-2.9038-0.18491-3.7042-0.39736zm165.7 0.02997c-0.76041-0.21366-2.0701-0.73766-2.9104-1.1644-0.84031-0.42678-2.0225-1.1369-2.6271-1.578-0.60457-0.44111-1.6595-1.5872-2.3443-2.5468-0.68477-0.95964-1.6078-2.6042-2.0512-3.6546l-0.80616-1.9098-0.0164-2.7781c-0.0122-2.0435 0.11356-3.1629 0.47511-4.2333 0.27033-0.80036 0.76039-1.991 1.089-2.6458 0.32861-0.65484 1.0931-1.8118 1.6988-2.5709 0.60569-0.75918 1.9782-1.9669 3.05-2.6837 1.0718-0.71687 2.7615-1.5803 3.7548-1.9187 1.4483-0.49338 2.3563-0.61372 4.5842-0.60752 1.9662 0.0055 3.2034 0.14905 4.2333 0.49129 0.80037 0.26596 2.0456 0.77934 2.7672 1.1409s1.942 1.1227 2.712 1.6916c0.77002 0.56884 1.3995 1.2389 1.399 1.4889 0 0.25007-1.3113 1.6751-2.9127 3.1667-1.6014 1.4916-3.0176 2.712-3.1471 2.712-0.12949 0-0.91448-0.35719-1.7444-0.79375-1.2031-0.63287-1.8395-0.79375-3.1396-0.79375-1.1464 0-1.9438 0.16519-2.6851 0.55626-0.57994 0.30594-1.3862 0.86818-1.7917 1.2494-0.42741 0.40183-0.91234 1.2953-1.1538 2.1257-0.28363 0.97574-0.35981 1.864-0.23881 2.7855 0.0977 0.74409 0.47122 1.8557 0.83005 2.4703 0.37872 0.64862 1.131 1.3979 1.7931 1.7859 0.87575 0.51321 1.504 0.66748 2.705 0.66414 1.1315-0.0031 1.857-0.17016 2.6226-0.60373 0.58208-0.32966 1.0583-0.77418 1.0583-0.98784 0-0.28943-0.40471-0.40902-1.5875-0.46913-0.87312-0.04437-1.6968-0.18937-1.8303-0.32222-0.13357-0.13285-0.28401-1.4408-0.33431-2.9066-0.0528-1.5403 0.0257-2.8839 0.18603-3.1835l0.27745-0.51841h12.352l0.33023 0.39791c0.23756 0.28624 0.29691 1.233 0.21142 3.3734l-0.11879 2.9755-0.95817 2.3362c-0.52699 1.2849-1.3833 2.855-1.9028 3.489-0.51957 0.63406-1.6275 1.5673-2.462 2.0739-0.83453 0.5066-2.1722 1.1854-2.9725 1.5085-1.0962 0.44251-2.1406 0.61072-4.2333 0.68181-1.8996 0.06453-3.2153-0.02848-4.1607-0.29411zm27.088-0.13136c-0.85045-0.2717-2.2197-0.93515-3.0427-1.4743-0.82304-0.53918-1.7755-1.2332-2.1166-1.5423-0.34104-0.30908-1.0723-1.3359-1.625-2.2818-0.55274-0.94588-1.1964-2.3665-1.4304-3.1569-0.35283-1.1917-0.42545-2.9105-0.42545-10.067 0-6.3597 0.0835-8.7138 0.3175-8.9478 0.21915-0.21914 1.5657-0.3175 4.3467-0.3175 3.3646 0 4.1001 0.07084 4.4587 0.42946l0.42947 0.42946-0.0468 7.9928c-0.0336 5.7485 0.0416 8.1579 0.26778 8.5805 0.17299 0.32323 0.69387 0.81901 1.1575 1.1017 0.46365 0.28271 1.1249 0.51447 1.4694 0.51501 0.37582 5.29e-4 1.0374-0.41 1.6536-1.0262l1.0272-1.0272v-8.1803c0-6.0097 0.0842-8.2645 0.3175-8.4978 0.22002-0.22003 1.5951-0.3175 4.479-0.3175 3.4304 0 4.2346 0.07304 4.5773 0.41577l0.41577 0.41577v7.5372c0 4.1706-0.13007 8.3755-0.2912 9.4139-0.16015 1.0322-0.50239 2.3647-0.76055 2.9611-0.25812 0.59639-0.99843 1.7987-1.6451 2.6718-0.70797 0.95596-1.8452 2.0364-2.8586 2.7159-0.92559 0.62064-2.4481 1.3648-3.3833 1.6536-1.0984 0.33926-2.4165 0.52017-3.7231 0.51097-1.2083-0.0085-2.6452-0.21312-3.5689-0.50824zm-257.56-0.07344c-0.2012-0.24243-0.30446-4.4817-0.3359-13.789-0.02878-8.5213 0.04986-13.535 0.21489-13.7 0.16321-0.1632 3.308-0.22824 8.4317-0.17437l8.1714 0.08592 1.4883 0.69612c0.81856 0.38287 1.9891 1.1486 2.6013 1.7016s1.4708 1.7144 1.9082 2.5808c0.43738 0.86644 0.85884 2.1917 0.93658 2.9449 0.07775 0.75327 0.0096 1.9837-0.15134 2.7344-0.16098 0.75064-0.5446 1.9007-0.85247 2.5557-0.30788 0.65498-0.92195 1.545-1.3646 1.9777s-1.2046 0.97656-1.6932 1.2084c-0.4886 0.23186-0.88836 0.59413-0.88836 0.80506 0 0.21093 0.57024 1.1876 1.2672 2.1704 0.69695 0.98279 1.667 2.5013 2.1557 3.3744s1.2877 2.1106 1.7755 2.75c0.48785 0.63939 0.887 1.3835 0.887 1.6536 0 0.27012-0.0893 0.49139-0.19844 0.49172-0.10914 2.65e-4 -2.0966 0.04566-4.4166 0.10074-2.32 0.05508-4.5227-0.01011-4.8948-0.14487-0.42945-0.15552-1.2228-1.0863-2.1721-2.5481-0.82255-1.2667-1.8757-2.9877-2.3404-3.8245-0.46465-0.83674-0.95252-1.5214-1.0841-1.5214-0.13168 0-0.23933 1.7214-0.23933 3.8272v3.8271l-0.46302 0.244c-0.25466 0.1342-2.2606 0.26166-4.4578 0.28325-3.0291 0.02976-4.065-0.04537-4.2852-0.31079zm13.077-15.43c0.59596-0.6319 0.89114-1.2029 0.89114-1.7237 0-0.50981-0.29705-1.1029-0.86005-1.7173-0.64223-0.70079-1.1442-0.97659-1.9818-1.0889-0.71595-0.09603-1.2663-0.03054-1.5212 0.18102-0.30022 0.24916-0.39941 0.90385-0.39941 2.6362 0 1.2676 0.07937 2.3841 0.17639 2.4811 0.09701 0.09701 0.76756 0.17639 1.4901 0.17639h1.3137zm262.63 15.35-0.46439-0.33942-0.0757-13.118c-0.0517-8.9612 0.014-13.286 0.20775-13.648l0.28348-0.52968h19.013l0.27389 0.51177c0.15066 0.28148 0.2739 1.865 0.2739 3.519 0 1.9861-0.10779 3.115-0.3175 3.3247-0.22177 0.22178-1.6776 0.31872-4.8286 0.32155-2.4811 0.0021-4.6688 0.10401-4.8615 0.22618-0.21072 0.13359-0.31615 0.58019-0.26459 1.1204l0.0858 0.8983 3.5544 0.07417c2.0682 0.04315 3.7 0.19499 3.9026 0.36312 0.25469 0.21139 0.34817 1.1994 0.34817 3.6805 0 2.4227-0.0945 3.4527-0.33073 3.6056-0.1819 0.11773-1.9381 0.27358-3.9026 0.34634l-3.5719 0.13229-0.0858 0.8983c-0.0516 0.54024 0.0539 0.98684 0.26459 1.1204 0.19269 0.12217 2.4 0.22396 4.9051 0.22618l4.5548 4e-3 0.21587 0.46302c0.11872 0.25466 0.19722 1.8022 0.17447 3.439-0.0277 1.9905-0.15471 3.1125-0.3836 3.3883l-0.34218 0.41231-9.082-0.05084c-6.9056-0.03866-9.1933-0.13218-9.5464-0.39026zm-200.04-0.17073c-0.2385-0.2385-0.3175-3.616-0.3175-13.573s0.07901-13.335 0.3175-13.573c0.21748-0.21748 1.5149-0.3175 4.1184-0.3175 2.1141 0 4.0281 0.12155 4.3127 0.27389l0.51177 0.27389v3.8271c0 2.944 0.07858 3.8272 0.34052 3.8272 0.18728 0 0.81236-0.79472 1.3891-1.766 0.5767-0.97132 1.5922-2.7183 2.2568-3.8821 0.66453-1.1638 1.4384-2.2062 1.7198-2.3164 0.28135-0.11018 2.4913-0.2087 4.9109-0.21892 3.6276-0.01533 4.4579 0.05188 4.7328 0.38317l0.33344 0.40177-1.5578 2.294c-0.8568 1.2617-2.2372 3.3133-3.0675 4.5592-0.8303 1.2458-2.1102 3.133-2.8443 4.1936-0.73404 1.0607-1.3346 2.0383-1.3346 2.1726 0 0.13427 0.6559 1.231 1.4576 2.4372 0.80166 1.2062 2.6174 3.8984 4.0349 5.9827 1.4175 2.0843 2.6856 3.9434 2.8179 4.1312 0.1323 0.18787 0.1658 0.53636 0.07445 0.77442l-0.16609 0.43284h-9.5466l-0.67499-0.99219c-0.37124-0.5457-1.3404-2.1233-2.1536-3.5057-0.81324-1.3824-1.6579-2.7219-1.877-2.9766-0.21913-0.25466-0.49904-0.46302-0.622-0.46302-0.12296 0-0.22358 1.6431-0.22358 3.6512 0 2.4871-0.10123 3.7525-0.3175 3.9688-0.21891 0.21891-1.5581 0.3175-4.3127 0.3175-2.7546 0-4.0938-0.09859-4.3127-0.3175zm25.945-0.01323c-0.15814-0.20032-0.32949-5.4666-0.43458-13.356l-0.17351-13.025 0.53446-0.53448 0.53448-0.53448h8.8809c5.6159 0 9.0691 0.1007 9.3927 0.27389l0.51178 0.27389v3.2824c0 2.3353-0.09541 3.3441-0.33073 3.4964-0.1819 0.11773-2.4143 0.27358-4.9609 0.34634l-4.6302 0.13229-0.08445 1.0314c-0.05292 0.64627 0.04588 1.114 0.26458 1.2527 0.19198 0.12172 1.8433 0.22314 3.6696 0.22537 2.2249 0.0027 3.4253 0.10881 3.638 0.32155 0.21069 0.21069 0.3175 1.3569 0.3175 3.4072 0 2.2315-0.09671 3.1699-0.34816 3.3786-0.20259 0.16813-1.8344 0.31997-3.9026 0.36312l-3.5544 0.07417v2.3812l4.7066 0.13229c3.7932 0.10662 4.7552 0.20931 4.9569 0.52917 0.13766 0.21828 0.25215 1.7125 0.25437 3.3205 0.0026 1.9262-0.10427 3.032-0.31345 3.2411-0.23474 0.23474-2.7092 0.3175-9.4926 0.3175-7.0244 0-9.2363-0.07752-9.4362-0.33073zm26.426-0.02307c-0.20034-0.24139-0.31573-3.4149-0.36314-9.988l-0.06948-9.6342-2.249-0.07362c-1.7272-0.05654-2.3257-0.17569-2.5797-0.51359-0.21886-0.29115-0.33073-1.4457-0.33073-3.4132 0-2.3502 0.08713-3.0604 0.41577-3.389l0.41579-0.41577h8.9943c5.694 0 9.1821 0.1005 9.5061 0.27389l0.51178 0.27389v3.2451c0 2.1712-0.10507 3.3501-0.3175 3.5626-0.19288 0.19289-1.1307 0.3175-2.3896 0.3175-1.4207 0-2.1078 0.10397-2.1856 0.33073-0.06247 0.1819-0.15065 4.5574-0.19595 9.7234-0.0453 5.166-0.17608 9.5415-0.29062 9.7234-0.15229 0.24187-1.3328 0.33073-4.3936 0.33073-3.1711 0-4.2565-0.08574-4.4789-0.35381zm24.573-0.30144c-0.14335-0.37707-0.24897-6.1016-0.24879-13.484v-12.829l0.40653-0.40652c0.33057-0.33024 1.1669-0.40653 4.4566-0.40653 3.0582 0 4.1217 0.08664 4.3434 0.35386 0.20058 0.2417 0.31568 3.4494 0.36312 10.12l0.0695 9.7665 4.8389 0.13229c3.9109 0.10692 4.8868 0.2084 5.0892 0.52917 0.13766 0.21828 0.25215 1.7125 0.25437 3.3205 3e-3 1.9262-0.10427 3.032-0.31345 3.2411-0.23495 0.23496-2.7472 0.3175-9.6638 0.3175h-9.3463l-0.24913-0.65525zm21.482 0.33774c-0.23852-0.23852-0.3175-3.6257-0.3175-13.617v-13.299l0.51178-0.27389c0.32401-0.17342 3.816-0.27389 9.5189-0.27389h9.0071l0.39577 0.604c0.30659 0.46793 0.37406 1.2438 0.29953 3.4438-0.0584 1.724-0.22423 2.9941-0.42206 3.2325-0.26422 0.31838-1.1602 0.39262-4.7384 0.39262-3.0792 0-4.5086 0.09594-4.7301 0.3175-0.17463 0.17462-0.3175 0.58284-0.3175 0.90714 0 0.3243 0.18709 0.77674 0.41576 1.0054 0.33499 0.33498 1.0787 0.41578 3.8272 0.41578h3.4114l0.24019 0.46302c0.1321 0.25466 0.25807 1.6862 0.27993 3.1811 0.022 1.495-0.0862 2.9535-0.24019 3.2411l-0.27993 0.52305h-3.5096c-2.3769 0-3.6121 0.10247-3.8271 0.3175-0.17463 0.17462-0.3175 0.58161-0.3175 0.9044 0 0.3228 0.0723 0.77523 0.1606 1.0054l0.1606 0.41852h4.549c3.1853 0 4.6442 0.09518 4.8665 0.3175 0.21044 0.21045 0.3175 1.3523 0.3175 3.3867s-0.10706 3.1762-0.3175 3.3867c-0.23472 0.23471-2.7046 0.3175-9.4721 0.3175s-9.2374-0.08279-9.4721-0.3175zm20.529-0.14552c-0.0516-0.25466 0.29049-1.7132 0.76031-3.2411 0.46979-1.528 1.4001-4.3259 2.0674-6.2177s1.6087-4.6302 2.092-6.0854 1.0812-3.3602 1.3286-4.2333c0.24746-0.87312 0.55398-1.8256 0.68117-2.1167 0.12721-0.29104 0.49299-1.3626 0.81288-2.3812 0.31988-1.0186 0.82544-2.12 1.1235-2.4474l0.54192-0.59531h8.0278l0.45956 0.5078c0.25275 0.27929 1.1704 2.5712 2.0392 5.0932 0.86881 2.522 1.9956 5.8951 2.504 7.4959 0.50839 1.6007 1.1507 3.6248 1.4273 4.4979 0.2766 0.87312 1.0588 3.1353 1.7382 5.0271s1.2513 3.7968 1.2709 4.2333l0.0356 0.79375-8.5782 0.1453-0.38767-0.60182c-0.2132-0.331-0.47151-1.0781-0.57401-1.6601-0.1025-0.58208-0.30448-1.2072-0.44884-1.3891-0.18447-0.23242-1.2296-0.33073-3.5161-0.33073h-3.2536l-0.4481 1.3891c-0.24646 0.76398-0.61598 1.657-0.82114 1.9844l-0.37298 0.59531h-8.4157zm14.792-11.352c0.0925-0.24114-0.0303-1.1834-0.27289-2.094-0.24262-0.91053-0.44114-1.9406-0.44114-2.2891 0-0.34848-0.16812-0.86353-0.37362-1.1446l-0.37362-0.51095-0.26238 0.65882c-0.14431 0.36235-0.4694 1.6301-0.7224 2.8172-0.25302 1.1871-0.38727 2.348-0.29834 2.5797 0.1152 0.3002 0.50874 0.42133 1.3689 0.42133 0.87987 0 1.2529-0.11888 1.3755-0.43844z" stroke-width=".26458"/></g></svg>
